<?xml version="1.0" encoding="utf-8"?>
<!-- Generator: Adobe Illustrator 16.0.2, SVG Export Plug-In . SVG Version: 6.00 Build 0)  -->
<!DOCTYPE svg PUBLIC "-//W3C//DTD SVG 1.1//EN" "http://www.w3.org/Graphics/SVG/1.1/DTD/svg11.dtd">
<svg version="1.1" id="Ebene_1" xmlns="http://www.w3.org/2000/svg" xmlns:xlink="http://www.w3.org/1999/xlink" x="0px" y="0px"
	 width="288.396px" height="288.395px" viewBox="0 0 288.396 288.395" enable-background="new 0 0 288.396 288.395"
	 xml:space="preserve">
<g>
	<rect fill="#FFFFFF" width="288.396" height="288.395"/>
	<path fill="#FF671B" d="M68.989,52.17c0,14.068,1.872,26.619,5.616,37.658c3.744,11.037,8.971,20.396,15.683,28.076
		c6.709,7.684,14.684,13.555,23.911,17.621c9.23,4.064,19.33,6.098,30.302,6.098c11.879,0,22.977-2.451,33.305-7.357l-22.072-17.426
		l17.426-20.719l26.526,21.105c13.555-16.264,20.334-37.949,20.334-65.057c0-14.066-1.873-26.627-5.617-37.66
		c-1.77-5.216-3.874-10.044-6.292-14.51H81.03c-2.43,4.429-4.548,9.222-6.327,14.412C70.894,25.514,68.989,38.104,68.989,52.17z"/>
	<path fill="#FF671B" d="M240.457,0c0.738,1.738,1.445,3.508,2.116,5.313c5.23,14.07,7.846,29.691,7.846,46.857
		c0,33.689-9.555,61.121-28.656,82.291l32.527,25.363l-17.426,20.715l-36.596-28.848c-16.526,10.066-35.047,15.102-55.571,15.102
		c-15.488,0-29.722-2.74-42.693-8.227c-12.975-5.486-24.174-13.264-33.596-23.334c-9.421-10.066-16.747-22.137-21.974-36.207
		C41.205,84.957,38.59,69.34,38.59,52.17c0-17.166,2.615-32.787,7.845-46.857c0.67-1.805,1.378-3.574,2.118-5.313H0v288.395h288.396
		V0H240.457z M83.685,262.752h-4.284l-10.769-28.426l-10.185,28.426h-4.27l-20.152-48.416h10.662h0.459
		c3.427,8.508,7.423,19.592,9.281,24.229l1.769,4.416l10.316-28.645h4.316l8.975,23.807l1.783,4.404l10.263-28.211h10.64
		L83.685,262.752z M146.857,223.336h-25.046v10.424h25.046v8.992h-25.046v11.002h25.046v8.998h-34.583v-48.416h34.583V223.336z
		 M198.574,254.926c-1.213,2.1-2.85,3.855-4.877,5.229c-3.777,2.588-8.605,3.902-14.363,3.902c-5.318,0-10.385-1.199-15.061-3.566
		c-1.557-0.787-3.014-1.701-4.334-2.709l-1.295-0.992l4.523-8.342l1.658,1.096c3.697,2.451,7.498,4.084,11.291,4.857
		c2.467,0.508,5.09,0.508,7.869,0.012c1.307-0.236,2.469-0.625,3.461-1.162c1.994-1.09,2.924-2.645,2.924-4.898
		c0-3.117-3.916-4.203-5.215-4.557c-1.213-0.326-2.539-0.631-3.982-0.912l-4.469-0.799c-6.137-1.088-10.357-2.688-12.914-4.902
		c-2.488-2.121-3.805-5.131-3.805-8.699c0-4.746,2.301-8.787,6.662-11.678c3.74-2.502,8.188-3.771,13.219-3.771
		c4.727,0,9.051,0.811,12.885,2.424c1.287,0.518,2.73,1.219,4.17,2.021l1.465,0.816l-3.615,8.889l-1.832-1.131
		c-2.813-1.736-6.211-2.883-10.074-3.41c-4.082-0.596-7.473-0.203-10.166,1.182c-1.863,0.963-2.732,2.137-2.732,3.68
		c0,2.277,2.65,3.219,3.512,3.525c1.357,0.488,2.902,0.889,4.594,1.191l5.598,1c5.031,0.963,8.473,2.051,10.518,3.332
		c2.07,1.295,3.637,2.791,4.66,4.443c1.061,1.725,1.598,3.961,1.598,6.656C200.446,250.332,199.815,252.775,198.574,254.926z
		 M254.372,223.336h-16.803v39.416h-9.537v-39.416h-16.801v-9h43.141V223.336z"/>
</g>
</svg>
